<?xml version="1.0" encoding="utf-8"?>
<!-- Generator: Adobe Illustrator 16.0.0, SVG Export Plug-In . SVG Version: 6.00 Build 0)  -->
<!DOCTYPE svg PUBLIC "-//W3C//DTD SVG 1.1//EN" "http://www.w3.org/Graphics/SVG/1.1/DTD/svg11.dtd">
<svg version="1.1" id="Layer_1" xmlns="http://www.w3.org/2000/svg" xmlns:xlink="http://www.w3.org/1999/xlink" x="0px" y="0px"
	 width="100px" height="100px" viewBox="0 0 100 100" enable-background="new 0 0 100 100" xml:space="preserve">
<g>
	<path fill-rule="evenodd" clip-rule="evenodd" fill="#2E2E2E" d="M77.1,61.88c-1.65-0.667-2.111-1.755-1.597-3.545
		c4.404-15.329,0.548-29.529-5.962-43.388C66.104,7.631,60.45,3.562,52.449,2.721c-4.758-0.5-9.531-0.034-13.403,2.763
		c-3.561,2.571-6.958,5.001-8.941,9.85c-5.732,14.01-9.875,27.921-5.477,43.046c0.765,2.632-0.839,3.156-2.498,3.913
		c-7.521,3.432-10.809,9.43-10.728,17.527c0.023,2.327,0.039,4.674-0.223,6.979c-0.394,3.463,1.198,5.045,4.389,6.02
		c11.252,3.44,22.766,4.695,34.472,4.633c11.873,0.055,23.583-1.077,34.917-4.87c1.847-0.617,3.883-0.973,3.893-3.736
		C88.887,78.111,89.844,67.03,77.1,61.88z M50.47,54.217c-6.017,0.053-10.237-2.005-12.488-8.232c3.049,1.672,5.63,1.821,8.45-0.456
		c1.913-1.546,5.098-1.506,7.093-0.065c2.917,2.105,5.504,2.664,8.935-0.24C60.107,51.634,56.399,54.165,50.47,54.217z
		 M60.487,60.102c-2.995,2.775-6.673,3.475-10.601,3.712c-3.607-0.322-7.168-0.855-10.049-3.508
		c-1.392-1.281-1.883-2.607-1.042-4.389c1.202-2.542,2.417-0.315,3.529,0.013c5.238,1.542,10.442,1.572,15.635-0.109
		c1.153-0.374,2.275-1.691,3.23,0.284C61.932,57.641,61.793,58.892,60.487,60.102z M59.998,43.352
		c-1.763,1.279-2.912,0.676-4.431-0.251c-3.047-1.859-6.375-1.567-9.665-0.757c-1.773,0.438-3.11,3.113-5.293,1.29
		c-2.639-2.203-5.821-3.971-6.981-7.546c-2.543-7.837,2.326-14.069,11.108-14.242c2.595-0.177,4.852,0.96,7.173,1.842
		c3.324,1.264,6.786,1.386,10.294,1.431c3.868,0.05,5.585,2.061,5.365,6.059C67.264,36.708,64.222,40.288,59.998,43.352z
		 M63.969,49.307c2.959-4.646,4.818-9.782,6.282-15.769c4.585,5.289,5.625,19.593,2.23,24.591c-1.035,1.524-7.168-0.337-8.313-2.69
		C63.227,53.502,62.58,51.488,63.969,49.307z M62.963,10.949c-8.858,1.215-17.027,1.368-25.365,0.072
		C43.445,3.91,55.155,3.692,62.963,10.949z M29.655,24.526c3.731-10.526,3.728-10.37,14.903-9.852
		c5.284,0.244,10.65,0.149,15.888-0.511c4.001-0.503,6.197,0.603,7.553,4.32c1.067,2.926,2.609,5.679,2.899,9.11
		c-2.479-4.747-6.479-5.969-11.373-5.502c-2.524,0.24-4.911-0.647-7.252-1.484c-9.451-3.376-15.411-1.711-21.932,6.159
		c-0.369,0.446-0.839,0.809-1.973,1.884C28.985,26.666,29.281,25.582,29.655,24.526z M29.803,33.572
		c1.592,5.707,3.478,10.585,5.985,15.263c2.666,4.972-1.164,10.588-6.713,10.265c-0.745-0.043-1.103-0.363-1.5-0.979
		C24.266,52.977,25.275,38.879,29.803,33.572z M85.695,88.283c-0.74,1.596-2.365,1.669-3.75,2.093
		c-10.453,3.197-21.19,4.187-32.065,4.075c-10.877,0.072-21.589-1.018-32.075-4.118c-2.668-0.789-3.653-1.979-3.673-4.855
		c-0.102-14.736,5.421-21.828,19.583-25.012c1.711-0.384,2.351,0.379,3.362,1.267c7.585,6.657,18.404,6.711,25.841,0.113
		c1.147-1.018,1.891-2.023,3.79-1.245c4.623,1.893,9.298,3.654,13.385,6.588C84.521,70.366,87.939,83.444,85.695,88.283z"/>
	<path fill-rule="evenodd" clip-rule="evenodd" fill="#2E2E2E" d="M50.892,82.552c-1.465,0.338-2.268,1.32-2.207,2.913
		c0.061,1.541,0.707,2.779,2.449,2.644c1.322-0.102,1.908-1.191,1.987-2.447C53.22,84.118,52.679,82.947,50.892,82.552z"/>
	<path fill-rule="evenodd" clip-rule="evenodd" fill="#2E2E2E" d="M51.081,78.132c1.185-0.041,1.964-1.18,1.994-2.546
		c0.042-1.634-0.678-2.851-2.372-2.785c-1.286,0.05-1.963,1.145-1.972,2.492C48.721,76.903,49.467,78.187,51.081,78.132z"/>
	<path fill-rule="evenodd" clip-rule="evenodd" fill="#2E2E2E" d="M50.305,47.141c-1.445-0.034-3.594-0.233-3.582,1.642
		c0.015,2.243,2.251,1.076,3.752,1.381c0.914-0.437,2.885,0.9,3.076-1.106C53.759,46.893,51.708,47.174,50.305,47.141z"/>
</g>
</svg>
