<?xml version="1.0" encoding="utf-8"?>
<!-- Generator: Adobe Illustrator 16.0.0, SVG Export Plug-In . SVG Version: 6.00 Build 0)  -->
<!DOCTYPE svg PUBLIC "-//W3C//DTD SVG 1.1//EN" "http://www.w3.org/Graphics/SVG/1.1/DTD/svg11.dtd">
<svg version="1.1" id="Layer_1" xmlns="http://www.w3.org/2000/svg" xmlns:xlink="http://www.w3.org/1999/xlink" x="0px" y="0px"
	 width="100px" height="100px" viewBox="0 0 100 100" enable-background="new 0 0 100 100" xml:space="preserve">
<g>
	<path fill-rule="evenodd" clip-rule="evenodd" fill="#2E2E2E" d="M87.199,81.306c-0.338-8.697-11.355-20.131-19.893-21.374
		c-4.731-0.689-5.853-2.772-3.498-6.995c2.467-4.424,3.814-9.164,4.726-14.097c0.734-3.983,0.186-8.481,4.314-11.229
		c0.535-0.356,1.061-1.764,0.807-2.108c-3.051-4.141-1.004-9.146-2.439-13.524c-0.396-1.215-0.373-3.779-2.326-2.399
		c-2.034,1.438-2.251,0.312-2.987-0.892c-1.703-2.782-3.896-5.103-6.61-6.918c-0.953-1.486-2.572-1.436-4.032-1.756
		c-0.479,0-1.342-0.114-1.381,0.016c-1.457,4.915-4.872,2.415-7.737,2.125c-1.915-0.194-3.856-0.314-5.776-0.232
		c-1.724,0.074-3.825-0.053-4.737,1.71c-1.023,1.974,2.572,1.701,2.174,3.673c-3.408,0.979-6.651,2.38-9.413,4.67
		c-0.902,0.749-2.517,2.26-0.742,2.958c3.09,1.216,1.334,2.308,0.486,3.69c-3.743,6.117-3.647,7.807,1.09,13.145
		c0.826,0.932,1.17,1.851,1.334,2.962c0.996,6.708,2.429,13.224,5.917,19.232c1.229,2.117,1.555,5.341-2.248,5.856
		c-8.283,1.124-13.096,7.485-18.942,12.255c-0.972,0.793-1.281,2.537-1.648,3.908c-1.091,4.078-0.88,8.297-1.25,12.457
		c-0.362,4.077,1.197,6.053,5.16,7.145c19.161,5.282,38.543,5.859,57.809,1.645C90.103,94.001,87.767,95.963,87.199,81.306z
		 M33.262,32.205c-0.113-1.098-0.049-2.872,1.098-2.874c4.09-0.01,7.413-3.01,11.527-2.677c3.186,0.258,6.003-0.821,8.622-2.519
		c0.828-0.537,1.682-1.234,1.082-2.305c-0.6-1.07-1.57-0.76-2.488-0.237c-2.394,1.362-4.679,3.36-7.437,0.377
		c-0.582-0.631-1.626,0.679-2.396,1.209c-2.393,1.652-4.948,2.785-7.843,2.851c-0.74-1.718,0.242-2.754,0.742-3.855
		c0.516-1.139,1.813-2.531,0.318-3.346c-1.758-0.957-2.527,1.068-3.053,2.224c-1.099,2.417-1.837,5-2.858,7.896
		c-4.062-4.289-0.744-7.107,1.053-10.309c0.887-1.581,5.22-2.466,1.474-5.527c-0.78-0.635,0.715-1.202,1.297-1.421
		c2.096-0.789,4.211-1.671,6.399-2.035c3.508-0.584,4.339-1.813,1.383-4.676c3.843-0.503,7.194,0.589,10.422,1.77
		c2.795,1.024,4.657,1.284,4.167-3.21c1.732,1.402,3.16,2.094,3.896,3.232c3.606,5.579,8.439,10.481,9.098,17.686
		c0.309,3.365-0.799,3.64-3.46,2.755c-2.053-0.683-3.685-1.891-5.112-3.472c-0.686-0.76-1.35-2.205-2.621-0.885
		c-1.035,1.075-0.182,2.123,0.598,2.938c0.885,0.921,1.785,2.242,2.875,2.477c5.583,1.208,4.544,5.005,3.847,8.857
		c-1.094,6.046-2.383,11.991-6.466,16.885c-4.505,5.398-14.835,5.396-19.171-0.103C35.243,47.562,34.063,39.928,33.262,32.205z
		 M39.763,58.67c1.078-0.569,1.68,0.548,2.518,0.833c4.536,1.54,9.078,1.451,13.746,0.535c1.442-0.283,3.204-2.924,4.271-0.702
		c1.443,3.008,5.544,5.582,2.528,9.845c-3.171,4.486-7.604,6.688-12.808,7.487c-5.219-0.838-9.624-2.906-12.656-7.247
		C35.862,67.271,37.62,59.803,39.763,58.67z M33.258,62.905c-0.64,10.225,6.483,13.675,14.371,16.445
		c11.279,0.262,18.981-6.275,19.265-16.353c6.665,1.583,7.493,3.663,3.546,8.917c-5.157,6.864-16.304,10.58-24.994,8.331
		c-6.455-0.426-11.703-3.217-15.729-8.228C25.514,66.79,26.28,64.793,33.258,62.905z M76.382,94.068
		c-18.649,4.285-37.348,3.816-55.982-0.604c-3.981-0.945-5.516-2.777-5.147-6.987c0.624-7.125,0.206-14.536,9.097-17.756
		c3.218,7.043,8.552,11.414,15.749,13.431c2.221,0.622,3.135,1.759,3.141,4.008c0.002,1.925,0.277,3.851,0.477,5.771
		c0.088,0.853,0.482,1.628,1.47,1.528c0.914-0.093,1.336-0.846,1.326-1.724c-0.01-1.125,0.064-2.301-0.223-3.366
		c-1.102-4.059,0.727-4.748,4.379-4.643c2.923,0.084,3.417,0.922,3.181,3.634c-0.172,1.988-1.693,5.616,0.945,5.82
		c2.733,0.211,1.625-3.548,1.707-5.491c0.144-3.333,1.31-4.954,4.677-5.952c5.888-1.748,10.613-5.45,13.415-11.061
		c1.047-2.096,1.818-1.858,3.549-0.874c5.239,2.979,6.269,7.905,6.325,13.212C84.571,92.997,86.748,91.685,76.382,94.068z"/>
	<path fill-rule="evenodd" clip-rule="evenodd" fill="#2E2E2E" d="M47.629,79.35c-0.166,0.068-0.333,0.136-0.499,0.205
		C47.31,79.52,47.481,79.463,47.629,79.35z"/>
</g>
</svg>
