<?xml version="1.0" encoding="utf-8"?>
<!-- Generator: Adobe Illustrator 16.0.0, SVG Export Plug-In . SVG Version: 6.00 Build 0)  -->
<!DOCTYPE svg PUBLIC "-//W3C//DTD SVG 1.1//EN" "http://www.w3.org/Graphics/SVG/1.1/DTD/svg11.dtd">
<svg version="1.1" id="Layer_1" xmlns="http://www.w3.org/2000/svg" xmlns:xlink="http://www.w3.org/1999/xlink" x="0px" y="0px"
	 width="100px" height="100px" viewBox="0 0 100 100" enable-background="new 0 0 100 100" xml:space="preserve">
<path fill-rule="evenodd" clip-rule="evenodd" fill="#2E2E2E" d="M88.152,78.762c-0.277-7.028-3.316-11.504-9.441-14.489
	c-5.109-2.49-10.41-4.374-15.842-5.958c-0.938-0.272-2.199-0.426-1.941-1.747c0.314-1.624,1.578-0.526,2.404-0.521
	c6.875,0.033,11.564-3.139,14.32-10.279c3.504-9.079,3.199-18.313-0.057-27.362C71.962,2.74,55.128-2.571,41.433,6.908
	c-1.309,0.906-2.508,1.39-4.078,1.437c-7.17,0.215-11.738,4.238-14.42,10.51c-3.469,8.105-3.615,16.477-1.262,24.921
	c2.682,9.619,7.541,13.293,17.262,13.789c-2.904,0.991-5.82,1.943-8.707,2.979c-16.381,5.873-18.021,8.406-18.563,25.63
	c-0.137,4.372,1.363,6.16,5.342,7.262c19.146,5.302,38.445,5.553,57.852,1.98C88.98,92.815,88.705,92.707,88.152,78.762z
	 M27.101,48.676c-5.471-10.219-5.514-20.717-0.137-31.058c1.326-2.548,3.416-4.992,6.279-5.354
	c5.494-0.693,9.979-3.399,14.863-5.604c9.461-4.27,20.223,0.111,25.041,9.37c4.693,9.023,5.293,18.481,1.889,28.047
	c-2.32,6.521-5.596,8.758-12.275,8.649c3.195-5.574,5.068-10.991,5.434-16.915c0.162-2.632-0.355-4.035-3.396-4.004
	c-6.4,0.067-12.15-1.796-16.65-6.609c-1.736-1.857-2.764-0.979-3.793,0.743c-2.377,3.975-5.771,6.398-10.531,6.518
	c-2.723,0.068-2.754,1.847-2.566,3.809c0.572,6.008,2.352,11.618,6.045,16.887C32.111,54.864,28.994,52.208,27.101,48.676z
	 M34.326,37.089c0.139-1.342,0.783-1.575,1.805-1.857c1.432-0.396,3.305-0.526,4.145-1.5c4.619-5.351,9.182-4.604,14.35-0.794
	c1.596,1.176,4.123,1.607,6.188,1.522c4.691-0.193,4.729,2.277,3.855,5.643c-1.088,4.199-2.352,8.31-5.33,11.642
	c-2.473,2.764-5.543,4.143-8.283,4.045C41.818,55.718,33.441,45.696,34.326,37.089z M57.615,61.351
	c-0.969,3.731-3.584,5.427-7.363,5.361c-2.65,0.106-4.986-0.551-6.633-2.746c-1.338-1.785-2.594-4.039-1.502-5.981
	c1.039-1.847,2.867,0.333,4.375,0.5c2.684,0.299,5.42,0.649,7.896-0.311C58.294,56.66,58.308,58.679,57.615,61.351z M85.568,86.799
	c-0.119,2.742-1.613,3.323-3.654,3.794c-3.883,0.896-7.738,1.945-11.654,2.663c-6.564,1.203-13.227,1.417-19.887,1.492
	c-10.855-0.049-21.578-0.985-32.068-4.073c-2.744-0.808-3.625-1.999-3.621-4.837c0.012-14.334,1.65-16.842,15.17-21.987
	c1.398-0.531,2.854-0.922,4.225-1.51c2.898-1.241,4.664-1.276,6.545,2.248c4.01,7.519,15.348,7.054,19.111-0.629
	c1.277-2.606,2.389-3.111,4.85-2.048c1.977,0.854,4.102,1.359,6.119,2.126C83.986,69.079,86.187,72.609,85.568,86.799z"/>
</svg>
